<svg width="116" height="17" viewBox="0 0 116 17" fill="none" xmlns="http://www.w3.org/2000/svg">
<path d="M8 12.918L12.635 16.0591L11.405 10.1391L15.5 6.15592L10.1075 5.64224L8 0.059082L5.8925 5.64224L0.5 6.15592L4.595 10.1391L3.365 16.0591L8 12.918Z" fill="white"/>
<path d="M33 12.918L37.635 16.0591L36.405 10.1391L40.5 6.15592L35.1075 5.64224L33 0.059082L30.8925 5.64224L25.5 6.15592L29.595 10.1391L28.365 16.0591L33 12.918Z" fill="white"/>
<path d="M65.5 6.15592L60.1075 5.63382L58 0.059082L55.8925 5.64224L50.5 6.15592L54.595 10.1391L53.365 16.0591L58 12.918L62.635 16.0591L61.4125 10.1391L65.5 6.15592ZM58 11.3433V3.51171L59.2825 6.91382L62.5675 7.23382L60.0775 9.65908L60.8275 13.2633L58 11.3433Z" fill="white"/>
<path d="M90.5 6.15592L85.1075 5.63382L83 0.059082L80.8925 5.64224L75.5 6.15592L79.595 10.1391L78.365 16.0591L83 12.918L87.635 16.0591L86.4125 10.1391L90.5 6.15592ZM83 11.3433L80.18 13.2549L80.93 9.65066L78.44 7.2254L81.725 6.9054L83 3.51171L84.2825 6.91382L87.5675 7.23382L85.0775 9.65908L85.8275 13.2633L83 11.3433Z" fill="white"/>
<path d="M115.5 6.15592L110.108 5.63382L108 0.059082L105.892 5.64224L100.5 6.15592L104.595 10.1391L103.365 16.0591L108 12.918L112.635 16.0591L111.412 10.1391L115.5 6.15592ZM108 11.3433L105.18 13.2549L105.93 9.65066L103.44 7.2254L106.725 6.9054L108 3.51171L109.283 6.91382L112.568 7.23382L110.078 9.65908L110.828 13.2633L108 11.3433Z" fill="white"/>
</svg>
